<!DOCTYPE svg PUBLIC "-//W3C//DTD SVG 1.1//EN" "http://www.w3.org/Graphics/SVG/1.1/DTD/svg11.dtd">
<!-- Uploaded to: SVG Repo, www.svgrepo.com, Transformed by: SVG Repo Mixer Tools -->
<svg width="64px" height="64px" viewBox="0 0 24 24" fill="none" xmlns="http://www.w3.org/2000/svg">
<g id="SVGRepo_bgCarrier" stroke-width="0"/>
<g id="SVGRepo_tracerCarrier" stroke-linecap="round" stroke-linejoin="round"/>
<g id="SVGRepo_iconCarrier"> <path fill-rule="evenodd" clip-rule="evenodd" d="M3 6L3.75 5.25H20.25L21 6V12H19.5V10.5H4.5V16.5H10.5V18H3.75L3 17.25V6ZM4.5 9H19.5V6.75H4.5V9Z" fill="#f3f3f3"/> <path fill-rule="evenodd" clip-rule="evenodd" d="M18.7245 17.9998C18.733 17.9999 18.7415 18 18.75 18C19.9926 18 21 16.9926 21 15.75C21 14.5074 19.9926 13.5 18.75 13.5C18.3456 13.5 17.9628 13.6722 17.681 13.8308C17.3791 14.0008 17.0866 14.2176 16.8398 14.4192C16.718 14.5187 16.6035 14.6178 16.5 14.7105C16.3965 14.6178 16.282 14.5187 16.1602 14.4192C15.9134 14.2176 15.6209 14.0008 15.319 13.8308C15.0372 13.6722 14.6544 13.5 14.25 13.5C13.0074 13.5 12 14.5074 12 15.75C12 16.9926 13.0074 18 14.25 18C14.2585 18 14.267 17.9999 14.2755 17.9998L13.6069 19.1141L14.8931 19.8859L16.5 17.2077L18.1069 19.8859L19.3931 19.1141L18.7245 17.9998ZM15.4112 15.75C15.3476 15.6944 15.2805 15.6375 15.2111 15.5808C14.999 15.4074 14.7808 15.2492 14.5831 15.1379C14.4851 15.0827 14.4031 15.0454 14.3386 15.023C14.2771 15.0016 14.2493 15.0001 14.2494 15C14.2494 15 14.2496 15 14.25 15C13.8358 15 13.5 15.3358 13.5 15.75C13.5 16.1642 13.8358 16.5 14.25 16.5C14.2496 16.5 14.2494 16.5 14.2494 16.5C14.2493 16.4999 14.2771 16.4984 14.3386 16.477C14.4031 16.4546 14.4851 16.4173 14.5831 16.3621C14.7808 16.2508 14.999 16.0926 15.2111 15.9192C15.2805 15.8625 15.3476 15.8056 15.4112 15.75ZM17.5888 15.75C17.6524 15.8056 17.7195 15.8625 17.7889 15.9192C18.001 16.0926 18.2192 16.2508 18.4169 16.3621C18.5149 16.4173 18.5969 16.4546 18.6614 16.477C18.7229 16.4984 18.7507 16.4999 18.7507 16.5C18.7506 16.5 18.7504 16.5 18.75 16.5C19.1642 16.5 19.5 16.1642 19.5 15.75C19.5 15.3358 19.1642 15 18.75 15C18.7504 15 18.7506 15 18.7507 15C18.7507 15.0001 18.7229 15.0016 18.6614 15.023C18.5969 15.0454 18.5149 15.0827 18.4169 15.1379C18.2192 15.2492 18.001 15.4074 17.7889 15.5808C17.7195 15.6375 17.6524 15.6944 17.5888 15.75Z" fill="#f3f3f3"/> </g>
</svg>