<!DOCTYPE svg PUBLIC "-//W3C//DTD SVG 1.1//EN" "http://www.w3.org/Graphics/SVG/1.1/DTD/svg11.dtd">
<!-- Uploaded to: SVG Repo, www.svgrepo.com, Transformed by: SVG Repo Mixer Tools -->
<svg width="64px" height="64px" viewBox="0 0 64 64" id="Flat" xmlns="http://www.w3.org/2000/svg" fill="#000000">
<g id="SVGRepo_bgCarrier" stroke-width="0"/>
<g id="SVGRepo_tracerCarrier" stroke-linecap="round" stroke-linejoin="round"/>
<g id="SVGRepo_iconCarrier">
<rect height="58" rx="2" ry="2" style="fill:#06255B" width="44" x="10" y="3"/>
<rect height="16" style="fill:#5fbac5" width="18" x="23" y="17"/>
<polygon points="37 13 32 15 27 13 26 17 32 17 38 17 37 13" style="fill:#ee638c"/>
<rect height="16" style="fill:#ee638c" width="2" x="31" y="17"/>
<rect height="2" style="fill:#ee638c" width="18" x="23" y="24"/>
<path d="M46,46H18a1,1,0,0,1,0-2H46a1,1,0,0,1,0,2Z" style="fill:#ee638c"/>
<path d="M46,52H18a1,1,0,0,1,0-2H46a1,1,0,0,1,0,2Z" style="fill:#ee638c"/>
<path d="M37,40H27a1,1,0,0,1,0-2H37a1,1,0,0,1,0,2Z" style="fill:#ee638c"/>
</g>
</svg>