<!DOCTYPE svg PUBLIC "-//W3C//DTD SVG 1.1//EN" "http://www.w3.org/Graphics/SVG/1.1/DTD/svg11.dtd">
<!-- Uploaded to: SVG Repo, www.svgrepo.com, Transformed by: SVG Repo Mixer Tools -->
<svg version="1.1" id="Layer_1" xmlns:sketch="http://www.bohemiancoding.com/sketch/ns" xmlns="http://www.w3.org/2000/svg" xmlns:xlink="http://www.w3.org/1999/xlink" width="64px" height="64px" viewBox="0 0 64 38" enable-background="new 0 0 64 38" xml:space="preserve" fill="#000000">
<g id="SVGRepo_bgCarrier" stroke-width="0"/>
<g id="SVGRepo_tracerCarrier" stroke-linecap="round" stroke-linejoin="round"/>
<g id="SVGRepo_iconCarrier"> <title>Cash-euro</title> <desc>Created with Sketch.</desc> <g id="Page-1" sketch:type="MSPage"> <g id="Cash-euro" transform="translate(1.000000, 1.000000)" sketch:type="MSLayerGroup"> <path id="Shape" sketch:type="MSShapeGroup" fill="none" stroke="#f3f3f3" stroke-width="2" d="M60,36c1.1,0,2-0.9,2-2V2 c0-1.1-0.9-2-2-2H2C0.9,0,0,0.9,0,2v32c0,1.1,0.9,2,2,2H60L60,36z"/> <path id="Shape_1_" sketch:type="MSShapeGroup" fill="none" stroke="#f3f3f3" stroke-width="2" d="M5,4h20.6"/> <path id="Shape_2_" sketch:type="MSShapeGroup" fill="none" stroke="#f3f3f3" stroke-width="2" d="M5,32h20.6"/> <path id="Shape_3_" sketch:type="MSShapeGroup" fill="none" stroke="#f3f3f3" stroke-width="2" d="M36,4h21"/> <path id="Shape_4_" sketch:type="MSShapeGroup" fill="none" stroke="#f3f3f3" stroke-width="2" d="M36,32h21"/> <circle id="Oval" sketch:type="MSShapeGroup" fill="none" stroke="#f3f3f3" stroke-width="2" cx="31" cy="18" r="15"> </circle> <path id="Shape_5_" sketch:type="MSShapeGroup" fill="none" stroke="#f3f3f3" stroke-width="2" d="M37.9,25.4 C36.5,27,34.7,28,32.7,28c-4.3,0-7.7-4.5-7.7-10s3.5-10,7.7-10c2,0,3.7,0.9,5.1,2.5"/> <path id="Shape_6_" sketch:type="MSShapeGroup" fill="none" stroke="#f3f3f3" stroke-width="2" d="M22,16h11.9"/> <path id="Shape_7_" sketch:type="MSShapeGroup" fill="none" stroke="#f3f3f3" stroke-width="2" d="M21,20h11.9"/> </g> </g> </g>
</svg>